<svg width="78" height="27" viewBox="0 0 78 27" fill="none" xmlns="http://www.w3.org/2000/svg">
<rect x="5.09801" y="0.411743" width="25.4902" height="6.47059" rx="3.23529" fill="#2F80ED"/>
<rect y="10.1177" width="25.4902" height="6.47059" rx="3.23529" fill="#2F80ED"/>
<rect x="5.09801" y="19.8235" width="25.4902" height="6.47059" rx="3.23529" fill="#2F80ED"/>
<path d="M39.6111 8.696C39.8511 8.72 40.0391 8.792 40.1751 8.912C40.3111 9.024 40.3791 9.216 40.3791 9.488C40.3791 9.768 40.2991 9.972 40.1391 10.1C39.9871 10.228 39.7671 10.284 39.4791 10.268C38.9031 10.228 38.4311 10.208 38.0631 10.208C37.9991 11.112 37.9551 12.016 37.9311 12.92C37.9071 13.816 37.8951 14.952 37.8951 16.328C37.8951 16.624 37.8351 16.832 37.7151 16.952C37.6031 17.064 37.3831 17.12 37.0551 17.12C36.7111 17.12 36.4631 17.06 36.3111 16.94C36.1591 16.82 36.0831 16.62 36.0831 16.34C36.0831 15.172 36.1111 14.032 36.1671 12.92L36.3111 10.22C35.9591 10.236 35.6751 10.252 35.4591 10.268L34.9311 10.304C34.8991 10.312 34.8511 10.316 34.7871 10.316C34.5551 10.316 34.3671 10.24 34.2231 10.088C34.0791 9.936 34.0071 9.736 34.0071 9.488C34.0071 9.256 34.0671 9.084 34.1871 8.972C34.3151 8.86 34.4911 8.788 34.7151 8.756C35.0031 8.716 35.4071 8.684 35.9271 8.66C36.4471 8.636 36.9271 8.624 37.3671 8.624C37.7271 8.624 38.1351 8.632 38.5911 8.648C39.0551 8.656 39.3951 8.672 39.6111 8.696ZM51.3448 10.844C51.9288 10.844 52.4448 10.976 52.8928 11.24C53.3488 11.496 53.7008 11.86 53.9488 12.332C54.1968 12.796 54.3208 13.34 54.3208 13.964C54.3208 14.596 54.1928 15.144 53.9368 15.608C53.6888 16.072 53.3368 16.432 52.8808 16.688C52.4248 16.936 51.9008 17.06 51.3088 17.06C50.9728 17.06 50.6528 17.028 50.3488 16.964C50.0448 16.892 49.8208 16.82 49.6768 16.748L49.6648 17.9C49.6488 18.396 49.6408 18.776 49.6408 19.04C49.6408 19.232 49.5568 19.388 49.3888 19.508C49.2208 19.628 49.0088 19.688 48.7528 19.688C48.4808 19.688 48.2688 19.62 48.1168 19.484C47.9648 19.348 47.8968 19.176 47.9128 18.968C47.9448 18.624 47.9648 18.24 47.9728 17.816C47.9808 17.392 47.9848 16.86 47.9848 16.22L47.9968 14.804C48.0128 14.1 48.0208 13.472 48.0208 12.92C48.0208 12.712 48.0008 12.556 47.9608 12.452C47.9288 12.34 47.8768 12.244 47.8048 12.164C47.7328 12.084 47.6808 12.02 47.6488 11.972C47.6168 11.916 47.6008 11.852 47.6008 11.78C47.6008 11.596 47.7048 11.416 47.9128 11.24C48.1208 11.064 48.3328 10.976 48.5488 10.976C48.6688 10.976 48.7768 11.016 48.8728 11.096C49.0648 11.272 49.2208 11.468 49.3408 11.684C49.5248 11.444 49.7848 11.244 50.1208 11.084C50.4568 10.924 50.8648 10.844 51.3448 10.844ZM51.0928 15.728C51.5648 15.728 51.9288 15.572 52.1848 15.26C52.4488 14.948 52.5808 14.504 52.5808 13.928C52.5808 13.384 52.4648 12.964 52.2328 12.668C52.0008 12.364 51.6608 12.212 51.2128 12.212C50.9248 12.212 50.6728 12.268 50.4568 12.38C50.2408 12.492 50.0728 12.632 49.9528 12.8C49.8328 12.96 49.7728 13.112 49.7728 13.256L49.7488 15.38C49.7888 15.444 49.9568 15.52 50.2528 15.608C50.5488 15.688 50.8288 15.728 51.0928 15.728Z" fill="white"/>
<path d="M43.5809 20.168C43.3089 20.168 43.0849 20.092 42.9089 19.94C42.7409 19.796 42.6569 19.616 42.6569 19.4C42.6569 19.304 42.6769 19.204 42.7169 19.1L43.1969 17.708L43.6289 16.484C43.2449 16.204 42.8849 15.784 42.5489 15.224C42.2129 14.656 41.9289 14.06 41.6969 13.436C41.4729 12.804 41.3209 12.252 41.2409 11.78C41.2249 11.7 41.2169 11.62 41.2169 11.54C41.2169 11.316 41.2929 11.148 41.4449 11.036C41.5969 10.924 41.7889 10.868 42.0209 10.868C42.2529 10.868 42.4169 10.916 42.5129 11.012C42.6169 11.1 42.6849 11.228 42.7169 11.396C42.8929 12.204 43.1129 12.932 43.3769 13.58C43.6409 14.22 43.9169 14.64 44.2049 14.84C44.3249 14.464 44.4409 14.052 44.5529 13.604C44.6729 13.156 44.7529 12.852 44.7929 12.692C44.9609 12.028 45.0769 11.576 45.1409 11.336C45.1889 11.16 45.2649 11.036 45.3689 10.964C45.4729 10.884 45.6249 10.844 45.8249 10.844C46.0969 10.844 46.3209 10.908 46.4969 11.036C46.6729 11.156 46.7609 11.308 46.7609 11.492C46.7609 11.548 46.7569 11.592 46.7489 11.624C46.4289 12.92 46.0089 14.396 45.4889 16.052C44.8809 18.012 44.4809 19.216 44.2889 19.664C44.2169 19.824 44.1329 19.948 44.0369 20.036C43.9409 20.124 43.7889 20.168 43.5809 20.168ZM58.4714 17.036C57.4554 17.036 56.6474 16.772 56.0474 16.244C55.4554 15.708 55.1594 14.96 55.1594 14C55.1594 13.376 55.2914 12.82 55.5554 12.332C55.8194 11.844 56.1914 11.464 56.6714 11.192C57.1594 10.92 57.7314 10.784 58.3874 10.784C59.0514 10.784 59.6354 10.924 60.1394 11.204C60.6434 11.484 61.0314 11.876 61.3034 12.38C61.5834 12.876 61.7234 13.444 61.7234 14.084C61.7234 15.02 61.4314 15.748 60.8474 16.268C60.2634 16.78 59.4714 17.036 58.4714 17.036ZM58.4474 15.704C58.9354 15.704 59.3114 15.568 59.5754 15.296C59.8474 15.016 59.9834 14.604 59.9834 14.06C59.9834 13.524 59.8514 13.068 59.5874 12.692C59.3314 12.308 58.9514 12.116 58.4474 12.116C57.9754 12.116 57.5994 12.288 57.3194 12.632C57.0394 12.976 56.8994 13.436 56.8994 14.012C56.8994 14.572 57.0354 14.996 57.3074 15.284C57.5794 15.564 57.9594 15.704 58.4474 15.704Z" fill="#2F80ED"/>
</svg>
