<svg width="51" height="20" viewBox="0 0 51 20" fill="none" xmlns="http://www.w3.org/2000/svg">
<rect x="3.33331" width="16.6667" height="5" rx="2.5" fill="#2F80ED"/>
<rect y="7.5" width="16.6667" height="5" rx="2.5" fill="#2F80ED"/>
<rect x="3.33331" y="15" width="16.6667" height="5" rx="2.5" fill="#2F80ED"/>
<path d="M27.964 4.696C28.204 4.72 28.392 4.792 28.528 4.912C28.664 5.024 28.732 5.216 28.732 5.488C28.732 5.768 28.652 5.972 28.492 6.1C28.34 6.228 28.12 6.284 27.832 6.268C27.256 6.228 26.784 6.208 26.416 6.208C26.352 7.112 26.308 8.016 26.284 8.92C26.26 9.816 26.248 10.952 26.248 12.328C26.248 12.624 26.188 12.832 26.068 12.952C25.956 13.064 25.736 13.12 25.408 13.12C25.064 13.12 24.816 13.06 24.664 12.94C24.512 12.82 24.436 12.62 24.436 12.34C24.436 11.172 24.464 10.032 24.52 8.92L24.664 6.22C24.312 6.236 24.028 6.252 23.812 6.268L23.284 6.304C23.252 6.312 23.204 6.316 23.14 6.316C22.908 6.316 22.72 6.24 22.576 6.088C22.432 5.936 22.36 5.736 22.36 5.488C22.36 5.256 22.42 5.084 22.54 4.972C22.668 4.86 22.844 4.788 23.068 4.756C23.356 4.716 23.76 4.684 24.28 4.66C24.8 4.636 25.28 4.624 25.72 4.624C26.08 4.624 26.488 4.632 26.944 4.648C27.408 4.656 27.748 4.672 27.964 4.696ZM39.6978 6.844C40.2818 6.844 40.7978 6.976 41.2458 7.24C41.7018 7.496 42.0538 7.86 42.3018 8.332C42.5498 8.796 42.6738 9.34 42.6738 9.964C42.6738 10.596 42.5458 11.144 42.2898 11.608C42.0418 12.072 41.6898 12.432 41.2338 12.688C40.7778 12.936 40.2538 13.06 39.6618 13.06C39.3258 13.06 39.0058 13.028 38.7018 12.964C38.3978 12.892 38.1738 12.82 38.0298 12.748L38.0178 13.9C38.0018 14.396 37.9938 14.776 37.9938 15.04C37.9938 15.232 37.9098 15.388 37.7418 15.508C37.5738 15.628 37.3618 15.688 37.1058 15.688C36.8338 15.688 36.6218 15.62 36.4698 15.484C36.3178 15.348 36.2498 15.176 36.2658 14.968C36.2978 14.624 36.3178 14.24 36.3258 13.816C36.3338 13.392 36.3378 12.86 36.3378 12.22L36.3498 10.804C36.3658 10.1 36.3738 9.472 36.3738 8.92C36.3738 8.712 36.3538 8.556 36.3138 8.452C36.2818 8.34 36.2298 8.244 36.1578 8.164C36.0858 8.084 36.0338 8.02 36.0018 7.972C35.9698 7.916 35.9538 7.852 35.9538 7.78C35.9538 7.596 36.0578 7.416 36.2658 7.24C36.4738 7.064 36.6858 6.976 36.9018 6.976C37.0218 6.976 37.1298 7.016 37.2258 7.096C37.4178 7.272 37.5738 7.468 37.6938 7.684C37.8778 7.444 38.1378 7.244 38.4738 7.084C38.8098 6.924 39.2178 6.844 39.6978 6.844ZM39.4458 11.728C39.9178 11.728 40.2818 11.572 40.5378 11.26C40.8018 10.948 40.9338 10.504 40.9338 9.928C40.9338 9.384 40.8178 8.964 40.5858 8.668C40.3538 8.364 40.0138 8.212 39.5658 8.212C39.2778 8.212 39.0258 8.268 38.8098 8.38C38.5938 8.492 38.4258 8.632 38.3058 8.8C38.1858 8.96 38.1258 9.112 38.1258 9.256L38.1018 11.38C38.1418 11.444 38.3098 11.52 38.6058 11.608C38.9018 11.688 39.1818 11.728 39.4458 11.728Z" fill="#333333"/>
<path d="M31.9338 16.168C31.6618 16.168 31.4378 16.092 31.2618 15.94C31.0938 15.796 31.0098 15.616 31.0098 15.4C31.0098 15.304 31.0298 15.204 31.0698 15.1L31.5498 13.708L31.9818 12.484C31.5978 12.204 31.2378 11.784 30.9018 11.224C30.5658 10.656 30.2818 10.06 30.0498 9.436C29.8258 8.804 29.6738 8.252 29.5938 7.78C29.5778 7.7 29.5698 7.62 29.5698 7.54C29.5698 7.316 29.6458 7.148 29.7978 7.036C29.9498 6.924 30.1418 6.868 30.3738 6.868C30.6058 6.868 30.7698 6.916 30.8658 7.012C30.9698 7.1 31.0378 7.228 31.0698 7.396C31.2458 8.204 31.4658 8.932 31.7298 9.58C31.9938 10.22 32.2698 10.64 32.5578 10.84C32.6778 10.464 32.7938 10.052 32.9058 9.604C33.0258 9.156 33.1058 8.852 33.1458 8.692C33.3138 8.028 33.4298 7.576 33.4938 7.336C33.5418 7.16 33.6178 7.036 33.7218 6.964C33.8258 6.884 33.9778 6.844 34.1778 6.844C34.4498 6.844 34.6738 6.908 34.8498 7.036C35.0258 7.156 35.1138 7.308 35.1138 7.492C35.1138 7.548 35.1098 7.592 35.1018 7.624C34.7818 8.92 34.3618 10.396 33.8418 12.052C33.2338 14.012 32.8338 15.216 32.6418 15.664C32.5698 15.824 32.4858 15.948 32.3898 16.036C32.2938 16.124 32.1418 16.168 31.9338 16.168ZM46.8243 13.036C45.8083 13.036 45.0003 12.772 44.4003 12.244C43.8083 11.708 43.5123 10.96 43.5123 10C43.5123 9.376 43.6443 8.82 43.9083 8.332C44.1723 7.844 44.5443 7.464 45.0243 7.192C45.5123 6.92 46.0843 6.784 46.7403 6.784C47.4043 6.784 47.9883 6.924 48.4923 7.204C48.9963 7.484 49.3843 7.876 49.6563 8.38C49.9363 8.876 50.0763 9.444 50.0763 10.084C50.0763 11.02 49.7843 11.748 49.2003 12.268C48.6163 12.78 47.8243 13.036 46.8243 13.036ZM46.8003 11.704C47.2883 11.704 47.6643 11.568 47.9283 11.296C48.2003 11.016 48.3363 10.604 48.3363 10.06C48.3363 9.524 48.2043 9.068 47.9403 8.692C47.6843 8.308 47.3043 8.116 46.8003 8.116C46.3283 8.116 45.9523 8.288 45.6723 8.632C45.3923 8.976 45.2523 9.436 45.2523 10.012C45.2523 10.572 45.3883 10.996 45.6603 11.284C45.9323 11.564 46.3123 11.704 46.8003 11.704Z" fill="#2F80ED"/>
</svg>
