<svg width="300" height="300" viewBox="0 0 300 300" fill="none" xmlns="http://www.w3.org/2000/svg">
<g clip-path="url(#clip0_2_27)">
<path opacity="0.1" d="M280.072 143.368C280.238 140.744 280.326 138.077 280.326 135.383C280.326 93.1986 259.545 58.9992 233.913 58.9992C225.751 58.9992 218.057 62.4877 211.399 68.5927C193.255 49.2119 169.568 37.502 143.654 37.502C101.488 37.502 65.2176 68.5384 49.1257 113.049C48.2336 112.963 47.333 112.917 46.424 112.917C20.7777 112.917 0 147.112 0 189.297C0 204.801 2.81426 219.232 7.6379 231.279C7.6379 269.231 29.7158 300.008 56.9493 300.008H91.2833L91.4353 299.647C93.4531 295.135 98.2852 294.007 101.651 296.57C102.54 297.244 103.368 298.12 104.361 298.43C108.338 299.593 111.008 290.782 115.033 291.639C117.053 292.069 118.629 294.945 120.661 294.651C122.009 294.453 123.031 292.899 124.297 292.24C126.326 291.178 128.384 292.651 129.805 295.042C130.629 291.775 130.624 287.902 131.958 284.906C133.976 280.394 138.808 279.266 142.174 281.829C143.063 282.503 143.89 283.379 144.884 283.689C148.86 284.852 151.531 276.041 155.555 276.898C157.576 277.328 159.152 280.204 161.184 279.91C162.532 279.712 163.553 278.158 164.82 277.499C167.977 275.844 171.211 280.336 171.988 284.864C172.289 286.858 172.448 288.889 172.463 290.926C175.188 289.108 177.49 283.995 180.599 284.658C182.62 285.088 184.196 287.964 186.228 287.67C187.576 287.472 188.598 285.918 189.864 285.259C193.022 283.604 196.255 288.096 197.032 292.624C197.446 295.027 197.474 297.523 197.544 299.988H254.434C275.823 299.988 293.153 275.832 293.153 246.032C297.493 234.404 300 220.728 300 206.084C300 180.114 292.12 157.167 280.072 143.368Z" fill="#2F80ED"/>
<path d="M175.328 103.106C188.851 103.106 199.812 88.0079 199.812 69.3834C199.812 50.7589 188.851 35.6608 175.328 35.6608C161.806 35.6608 150.844 50.7589 150.844 69.3834C150.844 88.0079 161.806 103.106 175.328 103.106Z" fill="#2F80ED"/>
<path d="M167.446 70.6548L175.289 59.8519L183.211 70.6548H177.827V78.9149H172.829V70.7091L167.446 70.6548Z" fill="white"/>
<path d="M207.557 155.512C207.226 153.161 206.371 151.01 205.112 149.358C203.853 147.706 202.251 146.635 200.53 146.294C198.809 145.953 197.053 146.359 195.507 147.455C193.96 148.551 192.7 150.283 191.901 152.411C190.197 152.667 188.629 153.812 187.519 155.612C186.41 157.412 185.843 159.729 185.936 162.087C186.029 164.444 186.775 166.663 188.019 168.287C189.264 169.91 190.913 170.815 192.628 170.815H207.166C208.645 170.809 210.063 169.998 211.11 168.559C212.157 167.12 212.75 165.17 212.758 163.132C212.763 161.187 212.227 159.313 211.26 157.895C210.292 156.478 208.967 155.625 207.557 155.512ZM201.127 160.055V165.892H197.561V160.039H193.748L199.34 152.337L204.929 160.039L201.127 160.055Z" fill="white"/>
<path d="M250.334 251.253C250.003 248.902 249.148 246.751 247.889 245.099C246.629 243.447 245.028 242.377 243.307 242.036C241.585 241.695 239.83 242.101 238.283 243.197C236.737 244.293 235.477 246.025 234.678 248.152C232.974 248.408 231.406 249.554 230.296 251.353C229.186 253.153 228.62 255.47 228.713 257.828C228.806 260.186 229.551 262.405 230.796 264.028C232.041 265.652 233.69 266.557 235.404 266.556H249.943C251.422 266.55 252.84 265.74 253.887 264.301C254.934 262.862 255.527 260.911 255.535 258.874C255.54 256.928 255.004 255.054 254.036 253.637C253.069 252.219 251.744 251.366 250.334 251.253ZM243.903 255.796V261.634H240.338V255.781H236.524L242.116 248.079L247.705 255.781L243.903 255.796Z" fill="white"/>
<path d="M92.7158 182.172C92.1988 178.541 90.8743 175.221 88.9259 172.673C86.9775 170.125 84.5018 168.475 81.842 167.952C79.1822 167.428 76.4701 168.058 74.0818 169.753C71.6935 171.449 69.7473 174.125 68.5131 177.412C65.8807 177.81 63.459 179.583 61.746 182.364C60.0329 185.146 59.1586 188.726 59.3027 192.368C59.4469 196.01 60.5985 199.437 62.521 201.946C64.4434 204.455 66.9906 205.854 69.6388 205.856H92.1107C94.4008 205.845 96.5949 204.587 98.2137 202.356C99.8326 200.125 100.745 197.102 100.75 193.948C100.758 190.943 99.9292 188.047 98.4349 185.857C96.9406 183.667 94.8941 182.349 92.7158 182.172ZM82.7786 189.188V198.235H77.2486V189.188H71.3724L80.015 177.288L88.6492 189.188H82.7786Z" fill="white"/>
<path d="M189.4 213.182V203.762L192.552 208.104L193.34 206.98L188.837 200.778L184.334 206.98L185.122 208.065L188.274 203.762V213.182H189.4Z" fill="white"/>
<path d="M32.0825 225.973V216.554L35.2345 220.895L36.0225 219.771L31.5197 213.569L27.0169 219.771L27.8049 220.856L30.9568 216.554V225.973H32.0825Z" fill="white"/>
<path d="M189.118 124.417V117.359L191.482 120.615L192.073 119.774L188.696 115.122L185.319 119.774L185.91 120.588L188.274 117.359V124.417H189.118Z" fill="white"/>
<path d="M127.486 73.2518V66.1933L129.85 69.4493L130.441 68.6082L127.064 63.9568L123.687 68.6082L124.278 69.4222L126.642 66.1933V73.2518H127.486Z" fill="white"/>
<path d="M104.409 143.023V135.964L106.773 139.22L107.364 138.379L103.987 133.728L100.61 138.379L101.201 139.193L103.565 135.964V143.023H104.409Z" fill="white"/>
<path d="M249.062 175.583V168.524L251.426 171.78L252.017 170.939L248.64 166.288L245.263 170.939L245.854 171.753L248.218 168.524V175.583H249.062Z" fill="white"/>
<path d="M99.3433 237.989V230.931L101.707 234.187L102.298 233.345L98.9212 228.694L95.5441 233.345L96.1351 234.159L98.499 230.931V237.989H99.3433Z" fill="white"/>
<path d="M222.045 115.897C222.978 115.897 223.734 114.856 223.734 113.572C223.734 112.287 222.978 111.246 222.045 111.246C221.112 111.246 220.356 112.287 220.356 113.572C220.356 114.856 221.112 115.897 222.045 115.897Z" fill="white"/>
<path d="M63.0394 109.696C63.972 109.696 64.728 108.654 64.728 107.37C64.728 106.085 63.972 105.044 63.0394 105.044C62.1069 105.044 61.3509 106.085 61.3509 107.37C61.3509 108.654 62.1069 109.696 63.0394 109.696Z" fill="white"/>
<path d="M112.852 168.613C113.784 168.613 114.54 167.572 114.54 166.288C114.54 165.003 113.784 163.962 112.852 163.962C111.919 163.962 111.163 165.003 111.163 166.288C111.163 167.572 111.919 168.613 112.852 168.613Z" fill="white"/>
<path d="M260.319 206.987C260.785 206.987 261.163 206.467 261.163 205.825C261.163 205.182 260.785 204.662 260.319 204.662C259.853 204.662 259.475 205.182 259.475 205.825C259.475 206.467 259.853 206.987 260.319 206.987Z" fill="white"/>
<path d="M196.998 239.16C197.464 239.16 197.842 238.639 197.842 237.997C197.842 237.355 197.464 236.834 196.998 236.834C196.532 236.834 196.154 237.355 196.154 237.997C196.154 238.639 196.532 239.16 196.998 239.16Z" fill="white"/>
<path d="M88.6491 266.293C89.1154 266.293 89.4934 265.772 89.4934 265.13C89.4934 264.488 89.1154 263.967 88.6491 263.967C88.1829 263.967 87.8049 264.488 87.8049 265.13C87.8049 265.772 88.1829 266.293 88.6491 266.293Z" fill="white"/>
<path d="M27.0169 172.102C27.4832 172.102 27.8612 171.581 27.8612 170.939C27.8612 170.297 27.4832 169.776 27.0169 169.776C26.5506 169.776 26.1726 170.297 26.1726 170.939C26.1726 171.581 26.5506 172.102 27.0169 172.102Z" fill="white"/>
<path d="M35.1782 147.294C35.6445 147.294 36.0225 146.774 36.0225 146.132C36.0225 145.489 35.6445 144.969 35.1782 144.969C34.7119 144.969 34.3339 145.489 34.3339 146.132C34.3339 146.774 34.7119 147.294 35.1782 147.294Z" fill="white"/>
<path d="M216.698 277.534C217.164 277.534 217.542 277.013 217.542 276.371C217.542 275.729 217.164 275.208 216.698 275.208C216.232 275.208 215.854 275.729 215.854 276.371C215.854 277.013 216.232 277.534 216.698 277.534Z" fill="white"/>
<path d="M60.5065 237.222C60.9728 237.222 61.3508 236.701 61.3508 236.059C61.3508 235.416 60.9728 234.896 60.5065 234.896C60.0403 234.896 59.6623 235.416 59.6623 236.059C59.6623 236.701 60.0403 237.222 60.5065 237.222Z" fill="white"/>
<path d="M79.925 130.627C80.3912 130.627 80.7692 130.106 80.7692 129.464C80.7692 128.822 80.3912 128.301 79.925 128.301C79.4587 128.301 79.0807 128.822 79.0807 129.464C79.0807 130.106 79.4587 130.627 79.925 130.627Z" fill="white"/>
<path d="M108.771 88.1828H104.409V82.1748H103.846V88.1828H99.484V88.9581H103.846V94.9661H104.409V88.9581H108.771V88.1828Z" fill="white"/>
<path d="M215.009 199.192H212.367V195.553H212.024V199.192H209.381V199.665H212.024V203.305H212.367V199.665H215.009V199.192Z" fill="white"/>
<path d="M198.968 267.025H196.326V263.386H195.982V267.025H193.34V267.498H195.982V271.138H196.326V267.498H198.968V267.025Z" fill="white"/>
<path d="M67.5423 258.498H64.8997V254.858H64.5563V258.498H61.9137V258.971H64.5563V262.611H64.8997V258.971H67.5423V258.498Z" fill="white"/>
<path d="M48.9681 190.277H46.3255V186.638H45.9822V190.277H43.3396V190.75H45.9822V194.39H46.3255V190.75H48.9681V190.277Z" fill="white"/>
<path d="M127.615 259.579L127.635 257.397L126.684 257.382L126.664 259.564L125.023 266.091L129.144 266.157L127.615 259.579Z" fill="#3F3D56"/>
<path d="M131.75 259.703L131.769 257.467L130.793 257.447L130.773 259.688L129.09 266.382L133.317 266.448L131.75 259.703Z" fill="#3F3D56"/>
<path d="M135.858 259.715L135.878 257.533L134.927 257.517L134.907 259.699L133.266 266.227L137.389 266.293L135.858 259.715Z" fill="#3F3D56"/>
<path d="M165.245 260.254L165.265 258.013L164.288 257.998L164.268 260.238L162.585 266.929L166.812 266.998L165.245 260.254Z" fill="#3F3D56"/>
<path d="M169.472 260.324L169.492 258.083L168.515 258.068L168.495 260.308L166.812 266.998L171.039 267.068L169.472 260.324Z" fill="#3F3D56"/>
<path d="M173.699 260.393L173.719 258.153L172.742 258.137L172.722 260.378L171.039 267.068L175.266 267.138L173.699 260.393Z" fill="#3F3D56"/>
<path d="M146.057 259.94L146.077 257.699L145.1 257.684L145.081 259.924L143.398 266.615L147.625 266.684L146.057 259.94Z" fill="#3F3D56"/>
<path d="M150.284 260.01L150.304 257.769L149.33 257.754L149.31 259.994L147.625 266.684L151.852 266.754L150.284 260.01Z" fill="#3F3D56"/>
<path d="M154.511 260.079L154.531 257.839L153.557 257.823L153.537 260.064L151.852 266.754L156.082 266.824L154.511 260.079Z" fill="#3F3D56"/>
<path d="M143.178 103.331C143.119 95.6173 136.523 81.9421 132.963 81.884C129.402 81.8258 122.893 95.2839 122.702 102.994H122.533L121.19 257.967L141.841 258.304L143.184 103.335L143.178 103.331Z" fill="#3F3D56"/>
<path d="M180.901 103.951C180.841 96.2376 174.245 82.5624 170.685 82.5043C167.125 82.4461 160.615 95.9042 160.427 103.614H160.258L158.916 258.587L179.567 258.924L180.909 103.955L180.901 103.951Z" fill="#3F3D56"/>
<path d="M162.343 31.3658C162.312 20.059 155.769 0.0579652 152.212 -0.000177307C148.655 -0.0583198 142.081 19.7256 141.864 31.0092H141.698L139.728 258.246L160.376 258.587L162.346 31.3464L162.343 31.3658Z" fill="#2F2E41"/>
<path d="M143.282 153.275L151.129 142.469L159.048 153.275H153.667V161.535H148.666V153.326L143.282 153.275Z" fill="#2F80ED"/>
<g opacity="0.1">
<path opacity="0.1" d="M161.783 106.564C163.919 99.699 168.09 92.5397 170.685 92.5824C174.062 92.6366 180.146 104.905 180.836 112.738L180.909 104.323C180.85 96.6097 174.253 82.9346 170.693 82.8764C168.132 82.8338 164.04 89.807 161.879 96.5903L161.783 106.564Z" fill="black"/>
<path opacity="0.1" d="M122.536 113.068H122.704C122.893 105.358 129.405 91.9001 132.962 91.9583C135.287 91.997 138.903 97.8384 141.152 104.036L141.698 41.1029H141.864C142.083 29.8 148.655 10.016 152.212 10.0936C155.572 10.1478 161.6 28.0053 162.281 39.5137L162.346 31.7614C162.315 20.4546 155.772 0.453534 152.215 0.395392C148.658 0.337249 142.083 20.1212 141.867 31.4241H141.701L141.155 94.3576C138.903 88.1557 135.29 82.3182 132.965 82.2795C129.408 82.2213 122.896 95.6794 122.707 103.389H122.538L121.196 258.362H121.28L122.536 113.068Z" fill="black"/>
</g>
<path d="M152.211 9.83985L152.209 9.8398C151.131 9.8222 150.248 11.0105 150.235 12.4939L150.181 18.769C150.168 20.2524 151.031 21.4693 152.108 21.4869L152.111 21.4869C153.188 21.5045 154.071 20.3162 154.084 18.8328L154.138 12.5577C154.151 11.0743 153.288 9.85745 152.211 9.83985Z" fill="#ECECF3"/>
</g>
<defs>
<clipPath id="clip0_2_27">
<rect width="300" height="300" fill="white"/>
</clipPath>
</defs>
</svg>
