<svg width="300" height="200" viewBox="0 0 300 200" fill="none" xmlns="http://www.w3.org/2000/svg">
<g clip-path="url(#clip0_33_40)">
<path d="M277.321 153.006L290.779 154.505C295.335 150.573 298.475 145.909 299.928 140.916C290.087 146.657 275.121 143.606 263.189 146.741C259.477 147.739 256.129 149.32 253.391 151.365C250.653 153.411 248.596 155.87 247.373 158.56L240.796 163.603C246.75 165.284 253.144 166.024 259.537 165.773C265.931 165.522 272.172 164.286 277.831 162.15C280.989 160.93 283.919 159.43 286.551 157.688C281.842 155.574 277.321 153.006 277.321 153.006Z" fill="#F2F2F2"/>
<path d="M272.543 137.664L285.527 134.727C287.145 129.76 287.037 124.587 285.213 119.656C279.997 127.923 264.694 129.95 255.975 136.549C253.277 138.622 251.269 141.101 250.099 143.803C248.928 146.504 248.626 149.359 249.214 152.155L246.483 158.76C252.863 158.371 259.049 157.001 264.614 154.744C270.18 152.487 274.993 149.397 278.721 145.686C280.784 143.59 282.468 141.317 283.734 138.92C278.197 138.525 272.543 137.664 272.543 137.664Z" fill="#F2F2F2"/>
<path d="M300 166.659C300 166.709 299.987 166.758 299.96 166.803C299.934 166.849 299.895 166.891 299.846 166.926C299.797 166.961 299.738 166.988 299.674 167.007C299.61 167.026 299.541 167.036 299.472 167.036H0.528396C0.388265 167.036 0.253872 166.996 0.154784 166.925C0.0556966 166.855 3.05176e-05 166.759 3.05176e-05 166.659C3.05176e-05 166.559 0.0556966 166.463 0.154784 166.393C0.253872 166.322 0.388265 166.282 0.528396 166.282H299.472C299.541 166.282 299.61 166.292 299.674 166.311C299.738 166.33 299.797 166.357 299.846 166.392C299.895 166.427 299.934 166.469 299.96 166.515C299.987 166.56 300 166.61 300 166.659V166.659Z" fill="#CCCCCC"/>
<path d="M123.876 150.603C176.598 150.603 219.337 120.139 219.337 82.5594C219.337 44.9799 176.598 14.5157 123.876 14.5157C71.1545 14.5157 28.4152 44.9799 28.4152 82.5594C28.4152 120.139 71.1545 150.603 123.876 150.603Z" fill="#E6E6E6"/>
<path d="M206.017 82.5595C206.026 91.6953 203.032 100.706 197.275 108.868C191.517 117.03 183.157 124.117 172.863 129.56C172.175 129.927 171.473 130.285 170.767 130.633C157.002 137.453 140.64 141.109 123.876 141.109C107.112 141.109 90.7497 137.453 76.9848 130.633C76.2788 130.285 75.5773 129.927 74.8891 129.56C64.6026 124.112 56.247 117.024 50.4903 108.863C44.7336 100.702 41.7354 91.6941 41.7354 82.5595C41.7354 73.4248 44.7336 64.4169 50.4903 56.2558C56.247 48.0947 64.6026 41.0067 74.8891 35.5587C75.5773 35.1915 76.2788 34.8339 76.9848 34.4858C90.7497 27.6656 107.112 24.0102 123.876 24.0102C140.64 24.0102 157.002 27.6656 170.767 34.4858C171.473 34.8339 172.175 35.1915 172.863 35.5587C183.157 41.002 191.517 48.0889 197.275 56.2511C203.032 64.4133 206.026 73.4236 206.017 82.5595V82.5595Z" fill="white"/>
<path d="M123.876 136.045C165.318 136.045 198.913 112.099 198.913 82.5594C198.913 53.0202 165.318 29.0739 123.876 29.0739C82.4344 29.0739 48.8394 53.0202 48.8394 82.5594C48.8394 112.099 82.4344 136.045 123.876 136.045Z" fill="#6C63FF"/>
<path opacity="0.2" d="M124.072 29.2234C122.934 29.2234 121.804 29.2446 120.679 29.2803C139.644 30.4682 157.266 36.7503 169.976 46.8538C182.685 56.9572 189.532 70.1266 189.128 83.6938C188.724 97.261 181.1 110.211 167.8 119.921C154.5 129.631 136.52 135.375 117.501 135.988C119.667 136.122 121.857 136.194 124.072 136.194C143.973 136.194 163.059 130.559 177.131 120.529C191.203 110.498 199.108 96.8942 199.108 82.709C199.108 68.5237 191.203 54.9195 177.131 44.889C163.059 34.8585 143.973 29.2234 124.072 29.2234V29.2234Z" fill="black"/>
<path d="M124.098 25.2761C123.451 25.2769 122.83 25.4606 122.372 25.7869C121.915 26.1131 121.657 26.5554 121.656 27.0168V34.6124C121.656 35.074 121.913 35.5168 122.371 35.8432C122.829 36.1696 123.45 36.353 124.098 36.353C124.746 36.353 125.367 36.1696 125.825 35.8432C126.283 35.5168 126.54 35.074 126.54 34.6124V27.0168C126.539 26.5554 126.281 26.1131 125.824 25.7869C125.366 25.4606 124.745 25.2769 124.098 25.2761V25.2761Z" fill="white"/>
<path d="M172.863 35.5586C172.175 35.1915 171.473 34.8339 170.767 34.4858C170.344 34.4661 169.92 34.5255 169.539 34.6582C169.157 34.7908 168.831 34.9921 168.592 35.2422L162.593 41.518C162.229 41.8995 162.092 42.3686 162.213 42.822C162.333 43.2755 162.702 43.6761 163.237 43.9359C163.772 44.1957 164.43 44.2933 165.066 44.2072C165.703 44.1212 166.265 43.8585 166.629 43.477L172.628 37.2012C172.856 36.9631 172.997 36.6881 173.038 36.4012C173.079 36.1144 173.019 35.8247 172.863 35.5586V35.5586Z" fill="white"/>
<path d="M200.116 64.175C199.995 63.9634 199.817 63.7708 199.592 63.6082C199.367 63.4457 199.099 63.3163 198.804 63.2276C198.509 63.1388 198.192 63.0924 197.872 63.0909C197.551 63.0895 197.234 63.1331 196.937 63.2192L187.062 66.077C186.463 66.2511 185.985 66.5876 185.733 67.0127C185.482 67.4378 185.478 67.9166 185.721 68.344C185.965 68.7714 186.436 69.1124 187.033 69.2921C187.629 69.4717 188.301 69.4753 188.9 69.302L198.775 66.4442C199.374 66.2692 199.852 65.9323 200.103 65.507C200.354 65.0817 200.359 64.6027 200.116 64.175Z" fill="white"/>
<path d="M85.1589 41.518L79.1604 35.2422C78.9214 34.9921 78.595 34.7908 78.2134 34.6582C77.8319 34.5255 77.4084 34.4661 76.9848 34.4858C76.2788 34.8339 75.5773 35.1915 74.8891 35.5587C74.7331 35.8247 74.6729 36.1144 74.714 36.4012C74.7551 36.6881 74.8962 36.9631 75.1244 37.2012L81.1229 43.4771C81.4874 43.8585 82.0495 44.1212 82.6857 44.2073C83.3218 44.2933 83.9799 44.1957 84.5151 43.936C85.0503 43.6762 85.4188 43.2755 85.5395 42.822C85.6603 42.3686 85.5233 41.8995 85.1589 41.518V41.518Z" fill="white"/>
<path d="M60.6899 66.077L50.8152 63.2192C50.2153 63.0456 49.5431 63.0489 48.9466 63.2284C48.3501 63.408 47.8781 63.7491 47.6343 64.1767C47.3906 64.6043 47.3952 65.0834 47.6469 65.5086C47.8987 65.9338 48.3772 66.2703 48.977 66.4441L58.8517 69.302C59.4515 69.4752 60.1233 69.4716 60.7195 69.292C61.3156 69.1124 61.7873 68.7714 62.0309 68.344C62.2745 67.9166 62.2701 67.4378 62.0186 67.0127C61.7672 66.5876 61.2893 66.2511 60.6899 66.077V66.077Z" fill="white"/>
<path d="M124.098 128.766C123.451 128.767 122.83 128.95 122.372 129.277C121.915 129.603 121.657 130.045 121.656 130.506V138.102C121.656 138.564 121.913 139.006 122.371 139.333C122.829 139.659 123.45 139.843 124.098 139.843C124.746 139.843 125.367 139.659 125.825 139.333C126.283 139.006 126.54 138.564 126.54 138.102V130.506C126.539 130.045 126.281 129.603 125.824 129.277C125.366 128.95 124.745 128.767 124.098 128.766V128.766Z" fill="white"/>
<path d="M172.628 127.918L166.629 121.642C166.449 121.453 166.218 121.291 165.95 121.166C165.682 121.041 165.381 120.954 165.066 120.912C164.751 120.869 164.428 120.871 164.114 120.918C163.8 120.964 163.502 121.054 163.237 121.183C162.972 121.312 162.745 121.476 162.569 121.667C162.394 121.858 162.272 122.072 162.212 122.297C162.153 122.521 162.156 122.752 162.221 122.976C162.286 123.2 162.413 123.412 162.593 123.601L168.592 129.877C168.831 130.127 169.157 130.328 169.539 130.461C169.92 130.593 170.344 130.653 170.767 130.633C171.473 130.285 172.175 129.927 172.863 129.56C173.019 129.294 173.079 129.005 173.038 128.718C172.997 128.431 172.856 128.156 172.628 127.918Z" fill="white"/>
<path d="M198.775 98.6747L188.9 95.8169C188.3 95.6432 187.628 95.6465 187.032 95.8261C186.435 96.0057 185.963 96.3467 185.72 96.7743C185.476 97.2019 185.48 97.6811 185.732 98.1063C185.984 98.5315 186.462 98.868 187.062 99.0418L196.937 101.9C197.537 102.073 198.208 102.069 198.805 101.89C199.401 101.71 199.872 101.369 200.116 100.942C200.36 100.514 200.355 100.035 200.104 99.6104C199.852 99.1853 199.374 98.8487 198.775 98.6747V98.6747Z" fill="white"/>
<path d="M84.5151 121.183C83.9798 120.923 83.3218 120.826 82.6857 120.912C82.0496 120.998 81.4875 121.26 81.1229 121.642L75.1244 127.918C74.8962 128.156 74.7551 128.431 74.714 128.718C74.6729 129.005 74.7331 129.294 74.8891 129.56C75.5773 129.927 76.2788 130.285 76.9848 130.633C77.4084 130.653 77.8319 130.593 78.2134 130.461C78.595 130.328 78.9214 130.127 79.1604 129.877L85.1589 123.601C85.3394 123.412 85.4659 123.2 85.5312 122.976C85.5966 122.752 85.5994 122.521 85.5396 122.297C85.4798 122.072 85.3586 121.858 85.1828 121.667C85.007 121.476 84.7801 121.312 84.5151 121.183V121.183Z" fill="white"/>
<path d="M62.0308 96.7726C61.9102 96.5611 61.7322 96.3685 61.5072 96.2059C61.2821 96.0433 61.0143 95.914 60.7191 95.8252C60.4238 95.7365 60.107 95.69 59.7865 95.6886C59.4661 95.6872 59.1485 95.7308 58.8517 95.8169L48.977 98.6747C48.3776 98.8487 47.8997 99.1853 47.6482 99.6104C47.3968 100.035 47.3924 100.514 47.636 100.942C47.8796 101.369 48.3513 101.71 48.9474 101.89C49.5436 102.069 50.2154 102.073 50.8152 101.9L60.6899 99.0418C61.289 98.8669 61.7665 98.5299 62.0178 98.1046C62.2691 97.6793 62.2738 97.2004 62.0308 96.7726V96.7726Z" fill="white"/>
<path d="M127.267 81.6957C127.492 82.6472 127.179 83.6235 126.396 84.4106C125.613 85.1977 124.423 85.7312 123.089 85.8941L79.7551 91.1481C79.094 91.2282 78.4173 91.2148 77.7636 91.1085C77.1098 91.0023 76.4919 90.8052 75.9449 90.5287C75.398 90.2522 74.9328 89.9016 74.576 89.497C74.2191 89.0924 73.9776 88.6416 73.8651 88.1704C73.7527 87.6992 73.7715 87.2168 73.9206 86.7508C74.0697 86.2849 74.3461 85.8444 74.734 85.4545C75.1219 85.0647 75.6138 84.7331 76.1815 84.4787C76.7492 84.2244 77.3816 84.0522 78.0426 83.9721L121.377 78.718C122.711 78.5573 124.081 78.7805 125.185 79.3388C126.29 79.897 127.038 80.7447 127.267 81.6957V81.6957Z" fill="#3F3D56"/>
<path d="M172.874 115.917C172.252 116.364 171.406 116.616 170.524 116.618C169.641 116.62 168.792 116.373 168.165 115.93L121.517 82.9407C120.891 82.4972 120.537 81.8946 120.534 81.2655C120.531 80.6363 120.879 80.0321 121.5 79.5854C122.122 79.1388 122.967 78.8864 123.85 78.8836C124.732 78.8809 125.58 79.128 126.207 79.5707L172.856 112.56C173.482 113.004 173.835 113.607 173.839 114.236C173.842 114.865 173.495 115.47 172.874 115.917V115.917Z" fill="#3F3D56"/>
<path d="M123.876 86.6737C127.064 86.6737 129.648 84.8317 129.648 82.5594C129.648 80.2872 127.064 78.4452 123.876 78.4452C120.688 78.4452 118.104 80.2872 118.104 82.5594C118.104 84.8317 120.688 86.6737 123.876 86.6737Z" fill="#CCCCCC"/>
<path d="M84.1182 11.2176C75.2582 21.1465 61.7398 27.7357 45.0682 32.0644C44.7387 32.2403 44.3639 32.3682 43.9652 32.4408C43.5664 32.5135 43.1514 32.5294 42.744 32.4877C42.3366 32.446 41.9447 32.3475 41.5907 32.1979C41.2367 32.0483 40.9275 31.8504 40.6807 31.6156V31.6156C31.6249 22.997 33.6697 10.6793 45.6215 4.09366C48.5111 2.50425 51.8147 1.3398 55.3408 0.667918C58.8668 -0.00396636 62.545 -0.169907 66.1618 0.179736C69.7785 0.529379 73.2618 1.38764 76.4095 2.70468C79.5571 4.02173 82.3063 5.77134 84.4975 7.85192L84.748 8.0903C84.9947 8.32512 85.1742 8.59227 85.276 8.87652C85.3779 9.16077 85.4003 9.45653 85.3418 9.74693C85.2833 10.0373 85.1451 10.3167 84.9352 10.569C84.7253 10.8214 84.4476 11.0418 84.1182 11.2176V11.2176Z" fill="#E6E6E6"/>
<path d="M163.255 7.85191C165.446 5.77133 168.195 4.02173 171.343 2.70468C174.49 1.38763 177.973 0.52938 181.59 0.179737C185.207 -0.169905 188.885 -0.00396983 192.411 0.667915C195.937 1.3398 199.241 2.50425 202.131 4.09366C214.082 10.6793 216.127 22.997 207.071 31.6156C206.825 31.8504 206.515 32.0483 206.161 32.1979C205.807 32.3475 205.415 32.446 205.008 32.4877C204.601 32.5294 204.186 32.5135 203.787 32.4408C203.388 32.3682 203.013 32.2403 202.684 32.0644C187.207 27.8409 174.515 20.532 163.634 11.2176C162.969 10.8624 162.528 10.3334 162.41 9.74692C162.292 9.16043 162.506 8.56452 163.004 8.09028L163.255 7.85191Z" fill="#E6E6E6"/>
<path d="M159.371 141.51C158.807 141.736 158.391 142.112 158.215 142.556C158.039 143 158.117 143.476 158.433 143.879L172.526 161.831C172.842 162.233 173.37 162.53 173.994 162.656C174.617 162.781 175.284 162.725 175.849 162.499C176.414 162.274 176.831 161.898 177.007 161.454C177.183 161.009 177.104 160.534 176.788 160.131L162.695 142.179C162.378 141.777 161.85 141.48 161.227 141.355C160.604 141.23 159.937 141.285 159.371 141.51V141.51Z" fill="#E6E6E6"/>
<path d="M85.0573 142.179L70.9638 160.131C70.6477 160.534 70.5691 161.009 70.7451 161.454C70.9212 161.898 71.3375 162.274 71.9026 162.499C72.4677 162.725 73.1353 162.781 73.7585 162.656C74.3817 162.53 74.9096 162.233 75.2259 161.831L89.3194 143.879C89.4761 143.68 89.5762 143.46 89.6138 143.233C89.6515 143.006 89.626 142.776 89.5389 142.556C89.4517 142.336 89.3047 142.13 89.106 141.951C88.9074 141.771 88.6611 141.621 88.3812 141.51C88.1013 141.398 87.7933 141.327 87.4748 141.3C87.1562 141.273 86.8334 141.291 86.5248 141.354C86.2161 141.416 85.9277 141.521 85.6759 141.662C85.4241 141.804 85.2139 141.979 85.0574 142.179H85.0573Z" fill="#E6E6E6"/>
<path d="M175.38 166.427C179.549 166.427 182.929 164.018 182.929 161.047C182.929 158.076 179.549 155.667 175.38 155.667C171.212 155.667 167.832 158.076 167.832 161.047C167.832 164.018 171.212 166.427 175.38 166.427Z" fill="#E6E6E6"/>
<path d="M180.709 28.7574C184.877 28.7574 188.257 26.3486 188.257 23.3772C188.257 20.4058 184.877 17.997 180.709 17.997C176.54 17.997 173.16 20.4058 173.16 23.3772C173.16 26.3486 176.54 28.7574 180.709 28.7574Z" fill="#E6E6E6"/>
<path d="M123.432 16.0982C127.601 16.0982 130.98 13.6894 130.98 10.718C130.98 7.74655 127.601 5.33775 123.432 5.33775C119.263 5.33775 115.884 7.74655 115.884 10.718C115.884 13.6894 119.263 16.0982 123.432 16.0982Z" fill="#E6E6E6"/>
<path d="M68.8195 28.1245C72.9882 28.1245 76.3676 25.7157 76.3676 22.7443C76.3676 19.7729 72.9882 17.3641 68.8195 17.3641C64.6509 17.3641 61.2715 19.7729 61.2715 22.7443C61.2715 25.7157 64.6509 28.1245 68.8195 28.1245Z" fill="#E6E6E6"/>
<path d="M73.7036 166.427C77.8723 166.427 81.2516 164.018 81.2516 161.047C81.2516 158.076 77.8723 155.667 73.7036 155.667C69.5349 155.667 66.1555 158.076 66.1555 161.047C66.1555 164.018 69.5349 166.427 73.7036 166.427Z" fill="#E6E6E6"/>
<path d="M169.46 112.891C169.757 113.223 170.153 113.505 170.62 113.716C171.087 113.927 171.613 114.063 172.161 114.114C172.709 114.164 173.266 114.128 173.793 114.009C174.32 113.89 174.803 113.689 175.21 113.422L187.054 117.946L186.419 112.989L175.269 109.453C174.594 108.996 173.707 108.732 172.777 108.71C171.847 108.688 170.938 108.909 170.222 109.333C169.506 109.757 169.033 110.353 168.892 111.009C168.752 111.665 168.954 112.335 169.46 112.891H169.46Z" fill="#FFB7B7"/>
<path d="M178.09 114.621L182.731 110.054L205.091 117.589L232.915 113.867C234.291 113.684 235.706 113.718 237.061 113.968C238.415 114.217 239.676 114.677 240.754 115.313C241.832 115.949 242.7 116.747 243.296 117.649C243.893 118.551 244.204 119.536 244.206 120.533V120.533C244.208 122.335 243.208 124.064 241.424 125.34C239.64 126.616 237.218 127.336 234.691 127.341L202.804 127.383L178.09 114.621Z" fill="#3F3D56"/>
<path d="M170.941 193.497L166.245 191.896L172.696 177.905L179.626 180.268L170.941 193.497Z" fill="#FFB7B7"/>
<path d="M202.424 191.241C202.082 191.394 201.741 191.544 201.396 191.694C200.709 191.994 200.016 192.289 199.323 192.579C198.974 192.724 198.622 192.869 198.274 193.012V193.019L198.253 193.022L198.246 193.024L197.715 193.117L196.953 191.682L196.601 191.02L196.104 190.083L195.194 188.37L190.399 179.346L197.853 178.036L198.133 178.85H198.136L198.274 179.253L200.878 186.781L201.409 188.321L201.427 188.367L201.747 189.287L202.023 190.083L202.33 190.974L202.424 191.241Z" fill="#FFB7B7"/>
<path d="M246.89 159.554C246.417 160.095 245.934 160.633 245.448 161.167C244.544 162.16 243.616 163.138 242.664 164.102C242.664 164.105 242.661 164.105 242.657 164.107C242.102 164.474 241.488 164.793 240.829 165.059C240.802 165.073 240.771 165.083 240.743 165.095C240.258 165.287 239.741 165.435 239.205 165.536C239.011 165.57 238.815 165.604 238.622 165.639C237.925 165.757 237.235 165.858 236.549 165.946C235.328 166.101 234.12 166.212 232.92 166.281C232.823 166.288 232.727 166.293 232.63 166.298C227.694 166.556 222.889 166.14 217.874 165.459C215.397 165.125 212.869 164.724 210.251 164.309C209.395 164.171 208.536 164.036 207.667 163.901C207.602 163.891 207.533 163.878 207.464 163.869C206.222 163.674 204.96 163.483 203.666 163.293C202.038 163.055 200.358 162.824 198.613 162.605L198.737 164.358C198.84 165.706 199.233 167.036 199.903 168.299C200.648 169.853 201.238 171.082 199.992 173.642L199.392 174.881C199.703 175.496 199.81 176.155 199.704 176.804C199.598 177.454 199.283 178.077 198.782 178.626L198.661 178.756L203.666 187.782L203.99 188.367H201.427L198.275 188.369H192.932L185.222 177.345L184.853 176.818V176.791L185.65 155.605C185.66 155.418 185.681 155.229 185.716 155.042C185.856 154.193 186.233 153.372 186.823 152.627C187.413 151.882 188.206 151.229 189.155 150.705C190.063 150.199 191.105 149.826 192.217 149.609C193.33 149.392 194.492 149.335 195.636 149.441L198.275 149.685L203.666 150.181L207.464 150.533L207.54 150.54L218.74 151.573L219.543 149.237L219.692 149.198L224.407 147.966L240.715 143.705L240.757 143.695L241.83 143.415L241.957 143.563C241.995 143.607 242.033 143.651 242.068 143.695C243.128 145.05 243.991 146.479 244.644 147.959C245.742 150.376 246.646 152.836 247.352 155.327C247.383 155.435 247.411 155.534 247.435 155.622L247.445 155.649C247.455 155.691 247.462 155.718 247.466 155.726C247.842 156.842 247.58 158.204 246.89 159.554Z" fill="#2F2E41"/>
<path d="M247.578 151.746C247.526 151.589 247.461 151.429 247.392 151.274C246.844 150.101 246.206 148.95 245.481 147.827C244.667 146.548 243.691 145.179 242.528 143.696C241.966 142.978 241.361 142.232 240.714 141.456C240.39 141.068 240.053 140.672 239.703 140.269C239.69 140.25 239.675 140.232 239.658 140.215L239.558 140.097L223.422 141.636L217.414 142.209L217.055 144.343L216.969 144.871C216.965 144.871 216.965 144.871 216.969 144.874L216.727 146.315V146.317L216.406 148.22L216.379 148.218L207.462 147.394L198.273 146.546L193.337 146.091C192.193 145.985 191.031 146.042 189.918 146.259C188.806 146.476 187.765 146.848 186.856 147.355C185.908 147.879 185.115 148.532 184.525 149.277C183.934 150.021 183.558 150.842 183.417 151.692C183.386 151.864 183.365 152.041 183.355 152.216L178.698 160.081C175.912 164.785 174.137 169.761 173.434 174.843L170.02 182.624L170.506 182.656L177.743 183.136L179.654 183.264L183.862 178.885C184.341 178.386 184.797 177.872 185.221 177.346C185.919 176.486 186.54 175.596 187.08 174.68L196.183 159.24C196.887 159.326 197.583 159.408 198.273 159.486C201.464 159.855 204.527 160.155 207.462 160.388C217.007 161.148 225.271 161.207 232.629 160.563C234.695 160.383 236.692 160.147 238.62 159.855C239.327 159.749 240.025 159.635 240.714 159.513C240.876 159.486 241.035 159.459 241.193 159.429C242.619 159.167 243.929 158.654 245.005 157.938C246.081 157.222 246.887 156.324 247.35 155.328C247.904 154.174 247.983 152.931 247.578 151.746V151.746Z" fill="#2F2E41"/>
<path d="M172.441 191.212L167.36 189.477L166.563 189.204L165.291 191.431L156.405 192.825C155.966 192.894 155.569 193.061 155.272 193.302C154.975 193.543 154.794 193.845 154.756 194.165C154.717 194.484 154.823 194.804 155.058 195.077C155.292 195.351 155.644 195.564 156.06 195.685L164.742 198.21L167.498 196.442L166.822 198.815L170.092 199.766L173.676 191.635L172.441 191.212Z" fill="#2F2E41"/>
<path d="M203.666 187.782L203.99 188.367H203.666V187.782Z" fill="#2F2E41"/>
<path d="M201.896 188.492L196.573 189.807L195.737 190.012L197.032 192.233L192.094 197.68C191.849 197.95 191.732 198.267 191.759 198.587C191.786 198.907 191.956 199.213 192.244 199.459C192.532 199.706 192.923 199.88 193.359 199.956C193.796 200.033 194.256 200.008 194.671 199.885L203.333 197.325L203.546 194.687L205.408 196.712L208.671 195.748L203.191 188.173L201.896 188.492Z" fill="#2F2E41"/>
<path d="M246.25 155.308C245.934 155.308 245.623 155.253 245.343 155.148L217.249 144.684L216.925 143.737L216.313 140.739L216.321 140.711L218.993 131.931C218.944 131.855 218.842 131.732 218.726 131.592C217.533 130.151 213.903 125.767 220.831 119.73L232.995 109.622L243.435 109.302L243.554 109.408C246.345 111.906 248.228 114.856 249.034 117.997C249.841 121.138 249.546 124.373 248.176 127.413L247.089 141.407L248.255 144.233C248.936 145.893 248.824 147.669 247.934 149.279L248.202 153.855C248.212 154.042 248.169 154.229 248.076 154.405C247.983 154.581 247.841 154.741 247.659 154.877C247.477 155.012 247.258 155.12 247.016 155.194C246.774 155.269 246.514 155.307 246.25 155.308L246.25 155.308Z" fill="#3F3D56"/>
<path d="M221.881 166.849C222.357 166.648 222.765 166.376 223.078 166.051C223.39 165.726 223.598 165.356 223.688 164.967C223.778 164.578 223.748 164.18 223.599 163.801C223.449 163.421 223.185 163.07 222.825 162.771L229.579 154.491L222.608 154.771L217.262 162.591C216.598 163.056 216.197 163.678 216.133 164.34C216.07 165.002 216.349 165.657 216.918 166.182C217.488 166.707 218.307 167.065 219.222 167.188C220.136 167.31 221.083 167.19 221.881 166.849L221.881 166.849Z" fill="#FFB7B7"/>
<path d="M224.606 160.761L218.365 157.296L229.706 141.63L225.457 121.679C225.247 120.693 225.344 119.686 225.741 118.73C226.138 117.774 226.826 116.891 227.756 116.146C228.685 115.4 229.834 114.81 231.12 114.416C232.405 114.022 233.797 113.835 235.196 113.868V113.868C237.722 113.929 240.11 114.702 241.838 116.018C243.565 117.333 244.49 119.083 244.41 120.883L243.36 143.6L224.606 160.761Z" fill="#3F3D56"/>
<path d="M226.299 105.422V98.0581C226.296 95.4412 227.752 92.9308 230.347 91.0792C232.941 89.2276 236.461 88.1864 240.132 88.1848C243.804 88.1831 247.326 89.221 249.923 91.0703C252.521 92.9195 253.982 95.4285 253.984 98.0454V98.0581C256.424 101.682 254.898 103.405 253.984 105.422C253.983 105.773 253.787 106.109 253.439 106.358C253.09 106.606 252.618 106.746 252.125 106.746H228.158C227.665 106.746 227.193 106.606 226.844 106.358C226.496 106.11 226.299 105.773 226.299 105.422V105.422Z" fill="#2F2E41"/>
<path d="M235.603 106.268C241.325 106.268 245.964 102.961 245.964 98.8821C245.964 94.8031 241.325 91.4963 235.603 91.4963C229.88 91.4963 225.241 94.8031 225.241 98.8821C225.241 102.961 229.88 106.268 235.603 106.268Z" fill="#FFB7B7"/>
<path d="M246.447 100.818C246.353 100.808 246.259 100.794 246.165 100.783C244.549 100.579 242.932 100.378 241.321 100.17L241.173 97.5665L239.22 99.8988C234.767 100.952 230.6 100.357 226.681 99.0427C225.388 98.6052 224.133 98.1122 222.924 97.5665C223.253 96.1265 224.03 94.7572 225.197 93.5588C226.365 92.3604 227.893 91.3631 229.671 90.64C229.819 90.58 229.963 90.5272 230.111 90.4743C230.112 90.4743 230.112 90.4743 230.113 90.4741C230.113 90.4739 230.114 90.4736 230.114 90.4733C230.115 90.473 230.115 90.4726 230.115 90.4722C230.116 90.4717 230.116 90.4713 230.116 90.4708C230.368 90.3863 230.625 90.3052 230.882 90.2313C232.894 89.6707 235.088 89.5288 237.209 89.8219C239.33 90.115 241.291 90.8312 242.863 91.8871C246.027 94.0398 247.45 97.5947 246.447 100.818Z" fill="#2F2E41"/>
</g>
<defs>
<clipPath id="clip0_33_40">
<rect width="300" height="200" fill="white"/>
</clipPath>
</defs>
</svg>
