<svg width="300" height="200" viewBox="0 0 300 200" fill="none" xmlns="http://www.w3.org/2000/svg">
<g clip-path="url(#clip0_8_246)">
<path d="M0.391274 176.314C1.57973 168.385 7.50238 160.574 16.6165 157.994C13.0221 166.154 13.0229 175.106 16.6187 183.266C18.0191 186.409 19.9713 189.783 18.6539 192.951C17.8343 194.921 15.8292 196.429 13.5878 197.372C11.3464 198.315 8.85884 198.764 6.40241 199.205L5.91898 199.536C2.01944 192.232 -0.797185 184.242 0.391274 176.314Z" fill="#F0F0F0"/>
<path d="M16.7069 158.144C11.3993 163.077 8.10046 169.273 7.27896 175.851C7.0718 177.264 7.13449 178.696 7.46472 180.093C7.83943 181.445 8.64384 182.69 9.79438 183.697C10.8444 184.654 12.0521 185.532 12.8034 186.685C13.1774 187.279 13.3957 187.932 13.444 188.602C13.4923 189.271 13.3695 189.942 13.0836 190.569C12.4203 192.147 11.1129 193.434 9.78168 194.655C8.30363 196.011 6.74251 197.4 6.11423 199.197C6.0381 199.415 5.63518 199.304 5.71119 199.087C6.80429 195.959 10.4639 194.183 12.2091 191.366C13.0235 190.052 13.3653 188.526 12.6018 187.138C11.9342 185.925 10.6898 185.018 9.61653 184.057C8.47677 183.088 7.64036 181.902 7.18035 180.603C6.76544 179.224 6.63637 177.797 6.79866 176.383C7.10281 173.193 8.00961 170.063 9.48584 167.107C11.1481 163.725 13.4954 160.605 16.4261 157.88C16.6075 157.711 16.8872 157.976 16.7069 158.144V158.144Z" fill="white"/>
<path d="M7.3932 173.72C6.08166 173.456 4.92601 172.813 4.13264 171.908C3.33926 171.002 2.95982 169.892 3.06208 168.775C3.0837 168.549 3.50775 168.567 3.48609 168.793C3.38856 169.832 3.74214 170.866 4.48301 171.708C5.22387 172.551 6.30323 173.145 7.52627 173.385C7.79198 173.438 7.65738 173.772 7.3932 173.72Z" fill="white"/>
<path d="M9.18492 183.27C11.5537 182.097 13.3024 180.226 14.0822 178.03C14.1593 177.813 14.5622 177.923 14.4853 178.141C13.6686 180.424 11.8441 182.368 9.37581 183.585C9.14046 183.7 8.95084 183.385 9.18492 183.27H9.18492Z" fill="white"/>
<path d="M11.5419 164.059C12.0237 164.249 12.5548 164.336 13.0875 164.314C13.6202 164.291 14.1379 164.16 14.594 163.93C14.8275 163.812 15.0169 164.127 14.7849 164.245C14.2796 164.496 13.7076 164.641 13.1191 164.667C12.5306 164.693 11.9434 164.599 11.4088 164.393C11.3564 164.377 11.3134 164.345 11.2883 164.304C11.2632 164.263 11.258 164.215 11.2738 164.171C11.2917 164.127 11.3299 164.09 11.3801 164.069C11.4303 164.048 11.4884 164.044 11.5419 164.059Z" fill="white"/>
<path d="M44.3975 172.154C44.2542 172.232 44.111 172.309 43.9675 172.389C42.0481 173.436 40.2344 174.611 38.5442 175.902C38.4117 176 38.2791 176.101 38.1502 176.202C34.1182 179.348 30.8254 183.087 28.4389 187.23C27.4911 188.88 26.696 190.586 26.0603 192.336C25.1826 194.752 24.4627 197.429 22.7253 199.406C22.5468 199.613 22.353 199.812 22.1449 200H6.44424C6.40855 199.985 6.3727 199.973 6.33684 199.958L5.70996 199.982C5.73515 199.89 5.76366 199.795 5.78885 199.703C5.80317 199.649 5.82103 199.596 5.83537 199.542C5.84604 199.507 5.85689 199.471 5.86406 199.438C5.86755 199.426 5.87122 199.415 5.87473 199.406C5.88189 199.373 5.89275 199.343 5.89991 199.313C6.05751 198.782 6.21989 198.25 6.38704 197.718C6.38704 197.715 6.38704 197.715 6.39054 197.712C7.67666 193.661 9.38169 189.664 11.7638 186.009C11.8355 185.899 11.9071 185.786 11.9859 185.676C13.0707 184.033 14.3155 182.467 15.7079 180.993C16.4734 180.187 17.2876 179.415 18.1474 178.678C20.3732 176.777 22.9455 175.178 25.7702 173.941C31.4014 171.474 37.9209 170.529 43.939 172.036C44.0929 172.074 44.2435 172.113 44.3975 172.154Z" fill="#F0F0F0"/>
<path d="M44.3622 172.32C36.5438 173.608 29.4135 176.907 23.984 181.749C22.7929 182.774 21.8039 183.948 21.0536 185.229C20.3713 186.496 20.1104 187.891 20.298 189.27C20.4418 190.559 20.7688 191.863 20.5325 193.158C20.3996 193.82 20.0998 194.451 19.6525 195.009C19.2053 195.568 18.6207 196.042 17.9372 196.4C16.2621 197.329 14.2846 197.703 12.3355 198.013C10.1713 198.357 7.91682 198.686 6.1106 199.808C5.89175 199.944 5.6504 199.654 5.86891 199.519C9.01143 197.567 13.2226 197.977 16.6604 196.599C18.2646 195.957 19.645 194.909 20.0423 193.42C20.3898 192.118 20.054 190.772 19.8948 189.469C19.688 188.126 19.8808 186.761 20.4562 185.494C21.1255 184.186 22.0583 182.982 23.2145 181.934C25.7723 179.539 28.768 177.492 32.092 175.869C35.8732 174 40.0121 172.681 44.3296 171.969C44.5968 171.925 44.6277 172.276 44.3622 172.32H44.3622Z" fill="white"/>
<path d="M25.6217 180.104C24.7662 179.238 24.3096 178.148 24.3335 177.029C24.3574 175.909 24.8602 174.833 25.7521 173.993C25.9332 173.824 26.2593 174.049 26.0779 174.219C25.2456 175 24.7774 176.002 24.7577 177.045C24.738 178.087 25.1682 179.101 25.9706 179.904C26.1447 180.078 25.7948 180.278 25.6217 180.104H25.6217Z" fill="white"/>
<path d="M20.1213 188.625C22.8642 188.871 25.6182 188.25 27.8342 186.887C28.0537 186.752 28.2951 187.041 28.0759 187.176C25.7667 188.592 22.8991 189.233 20.0455 188.971C19.7735 188.946 19.8508 188.6 20.1213 188.625Z" fill="white"/>
<path d="M35.9455 174.463C36.1924 174.855 36.5528 175.19 36.9944 175.438C37.4361 175.687 37.9451 175.84 38.4758 175.885C38.748 175.907 38.6704 176.253 38.4 176.231C37.8139 176.179 37.252 176.01 36.7633 175.736C36.2746 175.463 35.8741 175.095 35.5966 174.663C35.5664 174.624 35.5551 174.577 35.565 174.532C35.575 174.486 35.6054 174.446 35.6502 174.418C35.6966 174.392 35.7536 174.382 35.8089 174.39C35.8642 174.398 35.9133 174.425 35.9455 174.463Z" fill="white"/>
<path d="M266.531 18.7866C253.564 7.36461 235.712 0.619138 216.813 0V60.033L266.531 18.7866Z" fill="#3F3D56"/>
<path d="M266.531 26.2615L216.813 67.5078H286.296C286.32 52.1662 279.246 37.402 266.531 26.2615Z" fill="#E4E4E4"/>
<path d="M286.37 71.8217C286.373 75.5634 285.955 79.2972 285.123 82.9747C285.059 83.2659 284.991 83.5542 284.919 83.8425C283.35 90.2574 280.518 96.4142 276.537 102.065C276.325 102.368 276.107 102.672 275.888 102.969V102.972C271.965 108.328 267.058 113.144 261.345 117.245C261.062 117.45 260.779 117.652 260.492 117.851C248.215 126.42 232.844 131.348 216.811 131.854V71.8217H286.37Z" fill="#F0F0F0"/>
<path d="M209.784 131.907C210.745 131.907 211.701 131.886 212.654 131.856V71.8203L160.026 115.48C173.459 126.047 191.272 131.927 209.784 131.907Z" fill="#CACACA"/>
<path d="M209.882 7.42133C169.881 7.42133 137.454 34.323 137.454 67.5078H212.828V7.47489C211.85 7.44243 210.869 7.42133 209.882 7.42133Z" fill="#6C63FF"/>
<path d="M192.603 71.8217L177.375 84.4547L176.877 84.8677L176.866 84.8766L163.587 95.89L163.082 96.309L148.736 108.211L148.23 108.63V108.633L139.974 115.48C132.804 109.871 127.094 103.104 123.195 95.596C119.296 88.0878 117.291 79.997 117.302 71.8217H192.603Z" fill="#6C63FF"/>
<path d="M74.4632 126.507C75.0173 126.228 75.4909 125.852 75.8508 125.405C76.2106 124.958 76.4479 124.45 76.5459 123.919C76.6439 123.387 76.6002 122.845 76.418 122.329C76.2358 121.813 75.9194 121.336 75.4911 120.933L76.0887 93.9083L68.9497 94.4045L68.9665 120.751C68.1969 121.392 67.7379 122.246 67.6764 123.15C67.6149 124.054 67.9552 124.945 68.6327 125.654C69.3102 126.364 70.278 126.843 71.3526 127C72.4272 127.157 73.534 126.982 74.4632 126.507Z" fill="#FFB6B6"/>
<path d="M77.2143 100.523L67.8776 99.7849C67.6119 99.7639 67.3549 99.6956 67.1239 99.5847C66.8929 99.4739 66.6934 99.323 66.5391 99.1424C66.3847 98.9618 66.2791 98.7558 66.2293 98.5383C66.1796 98.3207 66.187 98.0969 66.251 97.882L68.4931 90.351C68.6304 89.224 69.3008 88.1882 70.3573 87.4707C71.4137 86.7532 72.7701 86.4125 74.1289 86.5233C75.4877 86.6341 76.7381 87.1874 77.6059 88.0619C78.4737 88.9363 78.8881 90.0606 78.7583 91.1881L79.2451 98.9098C79.2589 99.1309 79.2152 99.3519 79.1168 99.5577C79.0185 99.7635 78.8678 99.9493 78.6751 100.102C78.4824 100.256 78.2521 100.372 78 100.445C77.748 100.518 77.48 100.544 77.2143 100.523H77.2143Z" fill="#E4E4E4"/>
<path d="M61.6854 196.818H65.3081L67.0314 185.226L61.6847 185.226L61.6854 196.818Z" fill="#FFB6B6"/>
<path d="M60.7612 195.837L67.8958 195.837H67.8961C69.1019 195.837 70.2583 196.234 71.111 196.941C71.9636 197.649 72.4427 198.608 72.4428 199.609V199.731L60.7614 199.731L60.7612 195.837Z" fill="#2F2E41"/>
<path d="M95.0766 196.818H98.6997L100.423 185.226L95.0763 185.226L95.0766 196.818Z" fill="#FFB6B6"/>
<path d="M94.1527 195.837L101.287 195.837H101.288C102.493 195.837 103.65 196.234 104.502 196.941C105.355 197.649 105.834 198.608 105.834 199.609V199.731L94.1529 199.731L94.1527 195.837Z" fill="#2F2E41"/>
<path d="M90.7028 103.687L93.0667 116.19L70.6086 116.435L73.5636 104.423L90.7028 103.687Z" fill="#FFB6B6"/>
<path d="M92.4148 113.137C99.5409 123.435 100.149 158.352 100.454 194.417H94.3964L79.9169 141.808L66.6194 193.043H60.7094L64.8464 135.434C64.8464 135.434 63.6265 123.871 69.8699 117.048L71.3896 113.405L92.4148 113.137Z" fill="#2F2E41"/>
<path d="M74.3342 110.592C74.203 110.592 74.0722 110.582 73.9436 110.56C73.5112 110.489 73.119 110.301 72.8269 110.027C72.5348 109.753 72.3589 109.407 72.326 109.043C72.1039 106.519 71.0032 102.127 69.0545 95.988C68.3966 93.9015 68.5423 91.6965 69.4711 89.6821C70.4 87.6678 72.0653 85.945 74.2338 84.7554C76.4022 83.5657 78.965 82.9689 81.563 83.0484C84.1609 83.128 86.6637 83.88 88.7205 85.199C90.0375 86.0359 91.1366 87.0853 91.9518 88.2839C92.7669 89.4825 93.2812 90.8056 93.4637 92.1735C94.4322 99.2492 92.6063 106.353 91.7764 109.079C91.6673 109.435 91.4207 109.751 91.0742 109.98C90.7277 110.208 90.3005 110.336 89.858 110.344L74.3772 110.592C74.3628 110.592 74.3485 110.592 74.3342 110.592Z" fill="#E4E4E4"/>
<path d="M117.585 87.894C117.492 88.067 117.415 88.2458 117.356 88.4288L97.9787 93.8915L94.2343 91.1778L88.5592 95.3305L94.625 100.669C95.115 101.1 95.7605 101.388 96.4644 101.489C97.1684 101.59 97.8929 101.499 98.5291 101.229L119.264 92.4426C120.014 92.8241 120.886 93.0073 121.765 92.9677C122.643 92.928 123.486 92.6675 124.182 92.2206C124.877 91.7738 125.392 91.1619 125.658 90.4663C125.924 89.7708 125.929 89.0244 125.671 88.3267C125.414 87.6289 124.906 87.0127 124.216 86.5601C123.526 86.1075 122.686 85.84 121.808 85.793C120.93 85.746 120.056 85.9219 119.302 86.2972C118.547 86.6725 117.948 87.2294 117.585 87.894Z" fill="#FFB6B6"/>
<path d="M97.3031 94.19L90.2391 99.3085C90.0381 99.4541 89.8017 99.5621 89.5458 99.6251C89.29 99.6881 89.0208 99.7046 88.7566 99.6735C88.4924 99.6424 88.2394 99.5644 88.0147 99.4448C87.7901 99.3253 87.5992 99.167 87.455 98.9807L82.4023 92.4535C81.5099 91.5961 81.0638 90.4802 81.1616 89.3504C81.2595 88.2206 81.8934 87.1691 82.9244 86.4264C83.9554 85.6838 85.2994 85.3106 86.6615 85.3887C88.0237 85.4669 89.2929 85.99 90.1908 86.8433L97.2861 91.8572C97.4892 92.0008 97.6526 92.1791 97.7652 92.3798C97.8778 92.5805 97.9369 92.799 97.9385 93.0204C97.9401 93.2418 97.8842 93.4608 97.7745 93.6627C97.6649 93.8645 97.5041 94.0444 97.3031 94.19Z" fill="#E4E4E4"/>
<path d="M87.8149 77.3566C90.3304 73.5391 88.6392 68.7527 84.0376 66.6659C79.436 64.579 73.6664 65.982 71.1509 69.7995C68.6355 73.617 70.3266 78.4034 74.9282 80.4903C79.5299 82.5771 85.2994 81.1741 87.8149 77.3566Z" fill="#FFB6B6"/>
<path d="M82.0969 62.6746H80.1714C79.2472 62.4346 78.2842 62.313 77.3158 62.314C77.1562 62.314 76.9976 62.3172 76.8399 62.3236C75.0396 62.4177 73.3182 62.9705 71.9109 63.9065C70.5035 64.8425 69.4787 66.1162 68.9765 67.5534C66.8235 73.5155 67.7535 80.1124 67.7535 80.1124C70.896 81.2915 75.699 82.1642 82.7924 81.4466L83.8356 77.8191L83.7485 81.3384C84.7484 81.223 85.7916 81.074 86.8781 80.8913V73.1315H91.2246C91.2246 67.3549 89.06 62.6746 82.0969 62.6746Z" fill="#2F2E41"/>
<path d="M299.104 132.244H162.624C162.529 132.244 162.437 132.212 162.37 132.157C162.303 132.101 162.265 132.025 162.265 131.946C162.265 131.868 162.303 131.792 162.37 131.736C162.437 131.681 162.529 131.649 162.624 131.649H299.104C299.199 131.649 299.291 131.681 299.358 131.736C299.425 131.792 299.463 131.868 299.463 131.946C299.463 132.025 299.425 132.101 299.358 132.157C299.291 132.212 299.199 132.244 299.104 132.244Z" fill="#F0F0F0"/>
<path d="M299.284 170.134V56.9094C299.284 56.8305 299.321 56.755 299.388 56.6992C299.456 56.6435 299.547 56.6122 299.642 56.6122C299.737 56.6122 299.828 56.6435 299.895 56.6992C299.962 56.755 300 56.8305 300 56.9094V170.134C300 170.213 299.962 170.288 299.895 170.344C299.828 170.4 299.737 170.431 299.642 170.431C299.547 170.431 299.456 170.4 299.388 170.344C299.321 170.288 299.284 170.213 299.284 170.134Z" fill="#F0F0F0"/>
<path d="M278.865 147.4C282.031 147.4 284.597 145.271 284.597 142.645C284.597 140.019 282.031 137.89 278.865 137.89C275.7 137.89 273.134 140.019 273.134 142.645C273.134 145.271 275.7 147.4 278.865 147.4Z" fill="#F0F0F0"/>
<path d="M139.519 13.373C142.684 13.373 145.25 11.2442 145.25 8.61814C145.25 5.99212 142.684 3.86331 139.519 3.86331C136.353 3.86331 133.787 5.99212 133.787 8.61814C133.787 11.2442 136.353 13.373 139.519 13.373Z" fill="#F0F0F0"/>
<path d="M137.197 199.703C137.197 199.742 137.188 199.781 137.17 199.817C137.152 199.853 137.126 199.886 137.093 199.913C137.059 199.941 137.02 199.963 136.976 199.978C136.933 199.993 136.886 200 136.839 200H0.358202C0.263197 200 0.172083 199.969 0.104904 199.913C0.0377251 199.857 -1.52588e-05 199.782 -1.52588e-05 199.703C-1.52588e-05 199.624 0.0377251 199.548 0.104904 199.493C0.172083 199.437 0.263197 199.406 0.358202 199.406H136.839C136.886 199.406 136.933 199.413 136.976 199.428C137.02 199.443 137.059 199.465 137.093 199.492C137.126 199.52 137.152 199.553 137.17 199.589C137.188 199.625 137.197 199.664 137.197 199.703Z" fill="#CACACA"/>
<path d="M148.23 108.632C136.346 98.8686 129.402 85.7101 128.815 71.8431L130.247 71.8004C130.822 85.3658 137.615 98.238 149.241 107.789L148.23 108.632Z" fill="#3F3D56"/>
<path d="M163.602 95.9019L162.563 96.7162C154.646 89.7812 149.058 81.246 146.357 71.9613L147.052 71.8217H147.79C150.447 80.8464 155.891 89.1414 163.587 95.89L163.602 95.9019Z" fill="#3F3D56"/>
<path d="M177.414 84.4962L176.877 84.8677L176.866 84.8766L176.315 85.257C172.295 81.2687 168.983 76.8246 166.478 72.0594L167.133 71.8217H167.918C170.344 76.3782 173.528 80.6304 177.375 84.4546C177.387 84.4692 177.4 84.4831 177.414 84.4962Z" fill="#3F3D56"/>
</g>
<defs>
<clipPath id="clip0_8_246">
<rect width="300" height="200" fill="white"/>
</clipPath>
</defs>
</svg>
