<svg width="300" height="201" viewBox="0 0 300 201" fill="none" xmlns="http://www.w3.org/2000/svg">
<g clip-path="url(#clip0_8_9)">
<path d="M111.789 138.363C116.49 138.363 120.302 133.747 120.302 128.052C120.302 122.358 116.49 117.742 111.789 117.742C107.087 117.742 103.275 122.358 103.275 128.052C103.275 133.747 107.087 138.363 111.789 138.363Z" fill="#6C63FF"/>
<path d="M110.977 132.405L108.429 128.437L109.911 127.041L111.117 128.92L115.193 123.709L116.556 125.273L110.977 132.405Z" fill="white"/>
<path d="M274.474 33.6828H147.912V0.92157H274.474V33.6828Z" fill="white"/>
<path d="M164.312 25.6245C168.107 25.6245 171.184 21.8985 171.184 17.3022C171.184 12.7059 168.107 8.97987 164.312 8.97987C160.517 8.97987 157.44 12.7059 157.44 17.3022C157.44 21.8985 160.517 25.6245 164.312 25.6245Z" fill="#6C63FF"/>
<path d="M180.183 11.754C179.879 11.754 179.588 11.9001 179.373 12.1602C179.158 12.4204 179.037 12.7732 179.037 13.141C179.037 13.5089 179.158 13.8617 179.373 14.1218C179.588 14.3819 179.879 14.5281 180.183 14.5281H263.803C264.107 14.5272 264.397 14.3807 264.611 14.1207C264.826 13.8606 264.946 13.5083 264.946 13.141C264.946 12.7737 264.826 12.4214 264.611 12.1614C264.397 11.9014 264.107 11.7548 263.803 11.754H180.183Z" fill="#3F3D56"/>
<path d="M180.183 20.0763C179.879 20.0755 179.587 20.2209 179.372 20.4805C179.157 20.74 179.036 21.0925 179.035 21.4604C179.034 21.8283 179.154 22.1814 179.369 22.442C179.583 22.7027 179.874 22.8496 180.178 22.8504H233.044C233.194 22.8507 233.343 22.815 233.482 22.7455C233.622 22.6759 233.748 22.5738 233.855 22.4449C233.961 22.3161 234.046 22.1631 234.103 21.9947C234.161 21.8262 234.191 21.6457 234.191 21.4633C234.191 21.281 234.161 21.1004 234.103 20.932C234.046 20.7635 233.961 20.6105 233.855 20.4817C233.748 20.3529 233.622 20.2507 233.482 20.1812C233.343 20.1116 233.194 20.076 233.044 20.0763H180.183Z" fill="#3F3D56"/>
<path d="M274.474 33.6828H147.912V0.92157H274.474V33.6828ZM149.845 31.3427H272.542V3.26166H149.845V31.3427Z" fill="#CCCCCC"/>
<path d="M274.474 74.6344H147.912V41.8731H274.474V74.6344Z" fill="white"/>
<path d="M164.312 66.5761C168.107 66.5761 171.184 62.85 171.184 58.2537C171.184 53.6575 168.107 49.9314 164.312 49.9314C160.517 49.9314 157.44 53.6575 157.44 58.2537C157.44 62.85 160.517 66.5761 164.312 66.5761Z" fill="#E6E6E6"/>
<path d="M180.183 52.7055C179.879 52.7055 179.588 52.8517 179.373 53.1118C179.158 53.3719 179.037 53.7247 179.037 54.0926C179.037 54.4604 179.158 54.8133 179.373 55.0734C179.588 55.3335 179.879 55.4796 180.183 55.4796H263.803C264.107 55.4788 264.397 55.3322 264.611 55.0722C264.826 54.8122 264.946 54.4599 264.946 54.0926C264.946 53.7253 264.826 53.373 264.611 53.113C264.397 52.8529 264.107 52.7064 263.803 52.7055H180.183Z" fill="#E6E6E6"/>
<path d="M180.183 61.0278C179.879 61.0271 179.587 61.1725 179.372 61.432C179.157 61.6916 179.036 62.0441 179.035 62.412C179.034 62.7798 179.154 63.1329 179.369 63.3936C179.583 63.6543 179.874 63.8012 180.178 63.8019H233.044C233.194 63.8022 233.343 63.7666 233.482 63.697C233.622 63.6275 233.748 63.5253 233.855 63.3965C233.961 63.2677 234.046 63.1147 234.103 62.9462C234.161 62.7778 234.191 62.5972 234.191 62.4149C234.191 62.2325 234.161 62.052 234.103 61.8836C234.046 61.7151 233.961 61.5621 233.855 61.4333C233.748 61.3044 233.622 61.2023 233.482 61.1328C233.343 61.0632 233.194 61.0275 233.044 61.0278H180.183Z" fill="#E6E6E6"/>
<path d="M274.474 74.6344H147.912V41.8731H274.474V74.6344ZM149.845 72.2943H272.542V44.2132H149.845V72.2943Z" fill="#E6E6E6"/>
<path d="M274.474 115.586H147.912V82.8247H274.474V115.586Z" fill="white"/>
<path d="M164.312 107.528C168.107 107.528 171.184 103.802 171.184 99.2053C171.184 94.609 168.107 90.883 164.312 90.883C160.517 90.883 157.44 94.609 157.44 99.2053C157.44 103.802 160.517 107.528 164.312 107.528Z" fill="#E6E6E6"/>
<path d="M180.183 93.6571C179.879 93.6571 179.588 93.8032 179.373 94.0633C179.158 94.3235 179.037 94.6763 179.037 95.0441C179.037 95.412 179.158 95.7648 179.373 96.0249C179.588 96.2851 179.879 96.4312 180.183 96.4312H263.803C264.107 96.4303 264.397 96.2838 264.611 96.0238C264.826 95.7637 264.946 95.4114 264.946 95.0441C264.946 94.6768 264.826 94.3245 264.611 94.0645C264.397 93.8045 264.107 93.658 263.803 93.6571H180.183Z" fill="#E6E6E6"/>
<path d="M180.183 101.979C179.879 101.979 179.587 102.124 179.372 102.384C179.157 102.643 179.036 102.996 179.035 103.364C179.034 103.731 179.154 104.084 179.369 104.345C179.583 104.606 179.874 104.753 180.178 104.753H233.044C233.194 104.754 233.343 104.718 233.482 104.649C233.622 104.579 233.748 104.477 233.855 104.348C233.961 104.219 234.046 104.066 234.103 103.898C234.161 103.729 234.191 103.549 234.191 103.366C234.191 103.184 234.161 103.004 234.103 102.835C234.046 102.667 233.961 102.514 233.855 102.385C233.748 102.256 233.622 102.154 233.482 102.084C233.343 102.015 233.194 101.979 233.044 101.979H180.183Z" fill="#E6E6E6"/>
<path d="M274.474 115.586H147.912V82.8247H274.474V115.586ZM149.845 113.246H272.542V85.1648H149.845V113.246Z" fill="#E6E6E6"/>
<path d="M64.652 123.359C64.3635 122.91 64.1597 122.389 64.0552 121.835C63.9506 121.28 63.9477 120.704 64.0467 120.148C64.1458 119.592 64.3443 119.069 64.6283 118.615C64.9124 118.162 65.275 117.79 65.6907 117.525L65.0196 108.668L69.3644 106.861L70.167 119.385C70.4885 120.26 70.5338 121.248 70.2942 122.161C70.0545 123.074 69.5467 123.849 68.8669 124.338C68.1871 124.828 67.3826 124.999 66.6057 124.818C65.8289 124.638 65.1338 124.118 64.652 123.359Z" fill="#FFB8B8"/>
<path d="M69.3163 72.5253C69.3163 72.5253 72.2978 64.9474 74.9472 67.613C77.5965 70.2787 71.3149 92.685 71.3149 92.685L70.3596 114.436L65.3243 113.827L63.9007 92.635L69.3163 72.5253Z" fill="#CCCCCC"/>
<path d="M29.3236 184.637L33.0612 188.301L46.5099 172.585L40.9937 167.177L29.3236 184.637Z" fill="#FFB8B8"/>
<path d="M29.358 182.224L36.7189 189.441L36.7192 189.441C37.9632 190.661 38.7561 192.429 38.9237 194.357C39.0912 196.284 38.6196 198.214 37.6126 199.721L37.4892 199.905L25.4373 188.09L29.358 182.224Z" fill="#2F2E41"/>
<path d="M81.2689 194.808H86.0776L88.3654 172.345L81.2679 172.345L81.2689 194.808Z" fill="#FFB8B8"/>
<path d="M80.0421 192.907L89.5124 192.907H89.5128C91.1134 192.907 92.6484 193.677 93.7802 195.048C94.912 196.418 95.5479 198.277 95.5481 200.216V200.453L80.0424 200.454L80.0421 192.907Z" fill="#2F2E41"/>
<path d="M89.7069 89.4978C89.7069 89.4978 98.7285 102.799 96.7673 116.1C94.8061 129.401 93.2371 139.377 93.2371 139.377L90.0992 169.304C90.0992 169.304 91.2759 177.454 89.7069 179.554C89.7069 179.554 92.0604 184.505 87.7457 186.405C83.431 188.305 81.103 185.749 81.103 185.749C81.103 185.749 77.9397 180.23 79.9009 178.804L80.727 120.073L49.306 169.779C49.306 169.779 48.7285 175.825 44.7026 175.89L39.8922 180.23L34.4008 176.429L37.1465 172.154C37.1465 172.154 35.5775 167.404 39.1077 166.454L59.5043 134.151L64.6035 117.525C64.6035 117.525 67.3492 104.699 74.8017 99.4736V93.9134L89.7069 89.4978Z" fill="#2F2E41"/>
<path d="M74.2133 66.4586C75.4009 64.7588 77.0633 63.6474 78.8839 63.3361C80.7044 63.0248 82.5559 63.5353 84.0857 64.7705L84.4116 65.0335C87.8932 69.8086 90.2333 75.6434 91.1797 81.9097L92.6487 91.6355L74.2133 96.4719L69.8914 78.4204C69.3429 76.1292 69.4749 73.6776 70.2645 71.4921C71.0542 69.3066 72.4515 67.5255 74.2133 66.4586V66.4586Z" fill="#CCCCCC"/>
<path d="M104.502 125.426C103.99 125.224 103.522 124.889 103.13 124.443C102.737 123.998 102.43 123.454 102.23 122.85C102.03 122.245 101.942 121.595 101.972 120.945C102.002 120.295 102.149 119.66 102.403 119.086L97.0853 111.204L100.252 106.122L107.633 117.381C108.401 117.962 108.966 118.864 109.221 119.916C109.476 120.968 109.404 122.097 109.018 123.088C108.632 124.08 107.959 124.866 107.127 125.297C106.294 125.728 105.36 125.774 104.502 125.426H104.502Z" fill="#FFB8B8"/>
<path d="M82.0582 73.5842C82.0582 73.5842 80.8814 64.0835 84.8039 64.5585C88.7263 65.0335 94.6099 91.1605 94.6099 91.1605L105.2 112.537L100.101 115.862L87.5496 96.8609L82.0582 73.5842Z" fill="#CCCCCC"/>
<path d="M89.241 59.6945H70.5627C70.1785 59.694 69.8101 59.5089 69.5385 59.1799C69.2668 58.8509 69.114 58.4048 69.1135 57.9395V48.1891C69.1135 44.7239 70.2501 41.4007 72.2734 38.9504C74.2966 36.5001 77.0406 35.1236 79.9019 35.1236C82.7631 35.1236 85.5072 36.5001 87.5304 38.9504C89.5536 41.4007 90.6902 44.7239 90.6902 48.1891V57.9395C90.6898 58.4048 90.5369 58.8509 90.2653 59.1799C89.9936 59.5089 89.6252 59.694 89.241 59.6945Z" fill="#2F2E41"/>
<path d="M82.1188 59.4676C86.4871 59.4676 90.0284 55.1788 90.0284 49.8884C90.0284 44.598 86.4871 40.3092 82.1188 40.3092C77.7504 40.3092 74.2091 44.598 74.2091 49.8884C74.2091 55.1788 77.7504 59.4676 82.1188 59.4676Z" fill="#FFB8B8"/>
<path d="M93.2425 49.1641H83.2883L83.1862 47.1783L82.6759 49.1641H81.1432L80.9409 45.2282L79.9294 49.1641H76.9636V48.9691C76.9636 43.2701 80.3001 38.6338 84.4013 38.6338H85.8047C89.9059 38.6338 93.2425 43.2701 93.2425 48.9691V49.1641Z" fill="#2F2E41"/>
<path d="M83.7004 61.5146C83.5787 61.5145 83.4573 61.5032 83.337 61.4807L71.489 59.2706V44.3253C71.489 42.7986 71.9898 41.3344 72.8812 40.2548C73.7726 39.1752 74.9816 38.5688 76.2422 38.5688H84.5314L84.2085 38.9668C79.7159 44.5061 83.1005 53.4882 85.5179 58.3493C85.6954 58.6987 85.7755 59.1079 85.7466 59.5166C85.7177 59.9253 85.5812 60.3119 85.3572 60.6197C85.1515 60.9059 84.8966 61.1343 84.6104 61.2889C84.3243 61.4435 84.0137 61.5205 83.7004 61.5146Z" fill="#2F2E41"/>
<path d="M291.486 27.5987C296.188 27.5987 300 22.9825 300 17.2881C300 11.5937 296.188 6.97755 291.486 6.97755C286.784 6.97755 282.973 11.5937 282.973 17.2881C282.973 22.9825 286.784 27.5987 291.486 27.5987Z" fill="#6C63FF"/>
<path d="M290.675 21.6403L288.127 17.6727L289.609 16.2769L290.815 18.1556L294.891 12.9446L296.254 14.5085L290.675 21.6403Z" fill="white"/>
<path d="M123.019 200.922H0.322047C0.236637 200.922 0.154725 200.88 0.0943305 200.807C0.0339364 200.734 7.62939e-06 200.635 7.62939e-06 200.532C7.62939e-06 200.428 0.0339364 200.329 0.0943305 200.256C0.154725 200.183 0.236637 200.142 0.322047 200.142H123.019C123.104 200.142 123.186 200.183 123.247 200.256C123.307 200.329 123.341 200.428 123.341 200.532C123.341 200.635 123.307 200.734 123.247 200.807C123.186 200.88 123.104 200.922 123.019 200.922Z" fill="#CCCCCC"/>
</g>
<defs>
<clipPath id="clip0_8_9">
<rect width="300" height="200" fill="white" transform="translate(0 0.92157)"/>
</clipPath>
</defs>
</svg>
